<svg aria-hidden="true" style="position: absolute; width: 0; height: 0; overflow: hidden;" version="1.1" xmlns="http://www.w3.org/2000/svg" xmlns:xlink="http://www.w3.org/1999/xlink">
<defs>
<symbol id="icon-Ellipse" viewBox="0 0 32 32">
<path fill="#4d5ae5" style="fill: var(--color1, #4d5ae5)" d="M32 16c0 4.418-1.791 8.418-4.686 11.314s-6.895 4.686-11.314 4.686c-4.418 0-8.418-1.791-11.314-4.686s-4.686-6.895-4.686-11.314c0-4.418 1.791-8.418 4.686-11.314s6.895-4.686 11.314-4.686c4.418 0 8.418 1.791 11.314 4.686s4.686 6.895 4.686 11.314z"></path>
</symbol>
<symbol id="icon-Ellipse-1" viewBox="0 0 32 32">
<path fill="#4d5ae5" style="fill: var(--color1, #4d5ae5)" d="M32 16c0 4.418-1.791 8.418-4.686 11.314s-6.895 4.686-11.314 4.686c-4.418 0-8.418-1.791-11.314-4.686s-4.686-6.895-4.686-11.314c0-4.418 1.791-8.418 4.686-11.314s6.895-4.686 11.314-4.686c4.418 0 8.418 1.791 11.314 4.686s4.686 6.895 4.686 11.314z"></path>
</symbol>
<symbol id="icon-Ellipse-2" viewBox="0 0 32 32">
<path fill="#4d5ae5" style="fill: var(--color1, #4d5ae5)" d="M32 16c0 4.418-1.791 8.418-4.686 11.314s-6.895 4.686-11.314 4.686c-4.418 0-8.418-1.791-11.314-4.686s-4.686-6.895-4.686-11.314c0-4.418 1.791-8.418 4.686-11.314s6.895-4.686 11.314-4.686c4.418 0 8.418 1.791 11.314 4.686s4.686 6.895 4.686 11.314z"></path>
</symbol>
<symbol id="icon-Ellipse-3" viewBox="0 0 32 32">
<path fill="#4d5ae5" style="fill: var(--color1, #4d5ae5)" d="M32 16c0 4.418-1.791 8.418-4.686 11.314s-6.895 4.686-11.314 4.686c-4.418 0-8.418-1.791-11.314-4.686s-4.686-6.895-4.686-11.314c0-4.418 1.791-8.418 4.686-11.314s6.895-4.686 11.314-4.686c4.418 0 8.418 1.791 11.314 4.686s4.686 6.895 4.686 11.314z"></path>
</symbol>
<symbol id="icon-Rectangle-2" viewBox="0 0 75 32">
<path fill="#f4f4fd" style="fill: var(--color2, #f4f4fd)" d="M1.143 0h73.143c0.631 0 1.143 0.512 1.143 1.143v29.714c0 0.631-0.512 1.143-1.143 1.143h-73.143c-0.631 0-1.143-0.512-1.143-1.143v-29.714c0-0.631 0.512-1.143 1.143-1.143z"></path>
</symbol>
<symbol id="icon-Rectangle-3" viewBox="0 0 75 32">
<path fill="#f4f4fd" style="fill: var(--color2, #f4f4fd)" d="M1.143 0h73.143c0.631 0 1.143 0.512 1.143 1.143v29.714c0 0.631-0.512 1.143-1.143 1.143h-73.143c-0.631 0-1.143-0.512-1.143-1.143v-29.714c0-0.631 0.512-1.143 1.143-1.143z"></path>
</symbol>
<symbol id="icon-Rectangle-3-1" viewBox="0 0 75 32">
<path fill="#f4f4fd" style="fill: var(--color2, #f4f4fd)" d="M1.143 0h73.143c0.631 0 1.143 0.512 1.143 1.143v29.714c0 0.631-0.512 1.143-1.143 1.143h-73.143c-0.631 0-1.143-0.512-1.143-1.143v-29.714c0-0.631 0.512-1.143 1.143-1.143z"></path>
</symbol>
<symbol id="icon-Rectangle-4" viewBox="0 0 75 32">
<path fill="#f4f4fd" style="fill: var(--color2, #f4f4fd)" d="M1.143 0h73.143c0.631 0 1.143 0.512 1.143 1.143v29.714c0 0.631-0.512 1.143-1.143 1.143h-73.143c-0.631 0-1.143-0.512-1.143-1.143v-29.714c0-0.631 0.512-1.143 1.143-1.143z"></path>
</symbol>
<symbol id="icon-Rectangle-9" viewBox="0 0 61 32">
<path fill="#f4f4fd" style="fill: var(--color2, #f4f4fd)" d="M1.143 0h73.143c0.631 0 1.143 0.512 1.143 1.143v29.714c0 0.631-0.512 1.143-1.143 1.143h-73.143c-0.631 0-1.143-0.512-1.143-1.143v-29.714c0-0.631 0.512-1.143 1.143-1.143z"></path>
</symbol>
<symbol id="icon-Rectangle-9-1" viewBox="0 0 61 32">
<path fill="#f4f4fd" style="fill: var(--color2, #f4f4fd)" d="M1.143 0h73.143c0.631 0 1.143 0.512 1.143 1.143v29.714c0 0.631-0.512 1.143-1.143 1.143h-73.143c-0.631 0-1.143-0.512-1.143-1.143v-29.714c0-0.631 0.512-1.143 1.143-1.143z"></path>
</symbol>
<symbol id="icon-Rectangle-9-2" viewBox="0 0 61 32">
<path fill="#f4f4fd" style="fill: var(--color2, #f4f4fd)" d="M1.143 0h73.143c0.631 0 1.143 0.512 1.143 1.143v29.714c0 0.631-0.512 1.143-1.143 1.143h-73.143c-0.631 0-1.143-0.512-1.143-1.143v-29.714c0-0.631 0.512-1.143 1.143-1.143z"></path>
</symbol>
<symbol id="icon-Rectangle-9-3" viewBox="0 0 61 32">
<path fill="#f4f4fd" style="fill: var(--color2, #f4f4fd)" d="M1.143 0h73.143c0.631 0 1.143 0.512 1.143 1.143v29.714c0 0.631-0.512 1.143-1.143 1.143h-73.143c-0.631 0-1.143-0.512-1.143-1.143v-29.714c0-0.631 0.512-1.143 1.143-1.143z"></path>
</symbol>
<symbol id="icon-Rectangle-9-4" viewBox="0 0 61 32">
<path fill="#f4f4fd" style="fill: var(--color2, #f4f4fd)" d="M1.143 0h73.143c0.631 0 1.143 0.512 1.143 1.143v29.714c0 0.631-0.512 1.143-1.143 1.143h-73.143c-0.631 0-1.143-0.512-1.143-1.143v-29.714c0-0.631 0.512-1.143 1.143-1.143z"></path>
</symbol>
<symbol id="icon-Rectangle-9-5" viewBox="0 0 61 32">
<path fill="#f4f4fd" style="fill: var(--color2, #f4f4fd)" d="M1.143 0h73.143c0.631 0 1.143 0.512 1.143 1.143v29.714c0 0.631-0.512 1.143-1.143 1.143h-73.143c-0.631 0-1.143-0.512-1.143-1.143v-29.714c0-0.631 0.512-1.143 1.143-1.143z"></path>
</symbol>
</defs>
</svg>
